<?xml version="1.0" standalone="no"?>
<!DOCTYPE svg PUBLIC "-//W3C//DTD SVG 20010904//EN"
 "http://www.w3.org/TR/2001/REC-SVG-20010904/DTD/svg10.dtd">
<svg version="1.0" xmlns="http://www.w3.org/2000/svg"
 width="135.000000pt" height="142.000000pt" viewBox="0 0 135.000000 142.000000"
 preserveAspectRatio="xMidYMid meet">
<metadata>
Created by potrace 1.16, written by Peter Selinger 2001-2019
</metadata>
<g transform="translate(0.000000,142.000000) scale(0.100000,-0.100000)"
fill="#000000" stroke="none">
<path d="M0 710 l0 -710 675 0 675 0 0 710 0 710 -675 0 -675 0 0 -710z m802
539 c29 -6 91 -29 137 -52 207 -100 330 -313 318 -547 -12 -249 -161 -448
-397 -531 -78 -27 -235 -32 -315 -10 -278 78 -462 356 -424 641 25 184 131
346 286 437 107 62 269 88 395 62z"/>
<path d="M615 1207 c-49 -5 -93 -19 -152 -47 -127 -62 -212 -155 -268 -295
-26 -63 -29 -82 -29 -185 0 -103 3 -123 29 -190 87 -227 290 -361 526 -348
190 11 346 116 435 293 122 246 43 540 -186 694 -101 67 -221 94 -355 78z m22
-291 l28 -24 0 -191 0 -191 -28 -27 c-25 -25 -35 -28 -111 -31 -134 -6 -126
-22 -126 247 0 125 3 231 7 234 3 4 50 7 104 7 89 0 100 -2 126 -24z m307 -7
c20 -24 26 -41 26 -80 0 -48 -1 -49 -30 -49 -29 0 -30 2 -30 43 0 62 -8 69
-76 65 l-59 -3 -3 -180 c-3 -201 -1 -205 66 -205 58 0 72 14 72 71 0 49 1 50
28 47 24 -3 27 -8 30 -45 7 -89 -48 -131 -157 -120 -44 5 -61 12 -78 32 -22
25 -23 33 -23 216 0 188 0 190 25 214 21 22 33 25 104 25 76 0 80 -1 105 -31z"/>
<path d="M466 859 c-8 -40 -8 -272 0 -322 l7 -37 52 0 c33 0 57 5 64 14 8 9
11 69 9 192 l-3 179 -61 3 -61 3 -7 -32z"/>
</g>
</svg>
